<?xml version="1.0" standalone="no"?>
<!DOCTYPE svg PUBLIC "-//W3C//DTD SVG 20010904//EN"
 "http://www.w3.org/TR/2001/REC-SVG-20010904/DTD/svg10.dtd">
<svg version="1.0" xmlns="http://www.w3.org/2000/svg"
 width="1536.000000pt" height="1024.000000pt" viewBox="0 0 1536.000000 1024.000000"
 preserveAspectRatio="xMidYMid meet">
<metadata>
Created by potrace 1.16, written by Peter Selinger 2001-2019
</metadata>
<g transform="translate(0.000000,1024.000000) scale(0.100000,-0.100000)"
fill="#000000" stroke="none">
<path d="M0 5120 l0 -5120 7680 0 7680 0 0 5120 0 5120 -7680 0 -7680 0 0
-5120z m8355 3193 c296 -56 502 -124 734 -245 417 -216 780 -563 1014 -970 26
-44 47 -62 47 -39 0 5 23 34 50 65 52 56 132 112 230 160 l55 27 -33 -26 c-92
-75 -168 -173 -204 -263 -19 -48 -22 -75 -22 -177 1 -101 5 -133 28 -205 53
-169 53 -176 17 -249 -70 -138 -248 -366 -402 -517 -199 -193 -397 -318 -687
-433 -112 -45 -122 -47 -122 -28 0 7 57 41 128 76 238 118 422 235 607 386
119 98 318 302 344 353 22 44 47 149 38 159 -4 3 -24 -8 -45 -25 -277 -235
-471 -354 -877 -536 -257 -116 -232 -99 -240 -159 l-8 -52 -12 35 c-89 254
-287 389 -494 336 -119 -30 -218 -108 -305 -240 -96 -143 -137 -277 -156 -501
-5 -64 -12 -120 -15 -125 -3 -6 -35 -10 -70 -10 -56 0 -66 3 -83 25 -31 39
-46 152 -34 238 6 39 10 73 8 74 -1 2 -36 -9 -77 -23 -104 -35 -389 -98 -619
-136 -107 -18 -197 -33 -199 -35 -6 -4 131 -128 183 -165 29 -20 74 -42 100
-49 64 -16 235 -7 486 26 107 14 215 25 240 25 l45 -1 -58 -25 c-32 -14 -86
-31 -120 -39 l-62 -14 58 6 c68 6 70 0 27 -69 -44 -70 -67 -78 -259 -90 -268
-18 -1269 -14 -1581 5 -515 32 -867 91 -1034 173 -86 42 -90 47 -76 88 6 20
18 36 26 36 8 0 70 -11 137 -25 159 -31 301 -39 319 -17 12 13 11 14 -8 2 -13
-8 -29 -10 -40 -5 -11 4 -25 7 -32 6 -10 -2 -10 5 1 31 7 18 24 73 37 122 l23
88 36 -6 c147 -26 197 -28 299 -15 l104 13 -148 23 c-400 60 -566 159 -563
334 1 30 4 65 8 79 l8 25 13 -27 c45 -95 329 -179 760 -223 259 -27 439 -35
775 -35 364 0 389 3 722 75 354 78 598 182 701 300 40 45 45 107 10 126 -34
18 -166 4 -328 -36 -776 -192 -1273 -243 -1890 -194 -238 19 -476 80 -580 149
-24 16 -47 27 -50 24 -10 -11 113 -114 179 -151 137 -75 134 -87 -17 -81 -172
8 -222 36 -222 123 0 77 27 132 89 181 67 54 298 170 436 220 96 34 308 90
504 133 87 19 97 24 159 79 289 251 703 490 968 558 88 22 285 49 539 73 370
36 1040 34 1358 -4 331 -39 638 -136 812 -255 46 -32 47 -32 40 -9 -3 13 -34
83 -69 154 -221 456 -626 853 -1127 1105 -188 95 -487 192 -694 225 -60 10
-112 20 -115 22 -11 10 151 -10 275 -34z m-350 -12 c172 -24 255 -42 415 -86
622 -172 1187 -613 1472 -1150 26 -49 48 -93 48 -97 0 -4 -26 5 -57 19 -135
60 -336 118 -514 147 -395 65 -1040 73 -1654 21 -451 -39 -701 -129 -1107
-395 -115 -76 -118 -77 -196 -83 -91 -7 -185 -39 -207 -70 -28 -40 -17 -95 28
-144 l20 -23 -26 0 c-36 0 -384 -73 -505 -106 -53 -15 -145 -44 -205 -65 -293
-105 -440 -207 -509 -356 -26 -55 -31 -76 -31 -144 0 -96 30 -166 106 -246 28
-29 47 -53 43 -53 -18 0 -89 44 -132 81 -43 37 -49 39 -55 23 -5 -14 -13 1
-29 55 -19 61 -22 88 -17 160 6 102 23 153 77 232 l40 58 -20 83 c-31 135 -42
243 -43 418 -1 281 43 498 127 634 25 41 55 85 65 97 l19 24 74 -80 c143 -153
140 -150 129 -187 -20 -66 -72 -203 -80 -211 -5 -5 -48 -19 -97 -32 -141 -37
-131 -31 -138 -82 -9 -69 -7 -318 3 -345 6 -17 31 -33 87 -56 95 -38 132 -46
178 -38 33 6 35 10 60 88 63 194 253 522 402 693 94 108 111 134 35 55 -72
-76 -214 -262 -260 -340 -18 -30 -30 -46 -27 -35 5 19 1 20 -66 20 -65 0 -74
-2 -84 -22 -6 -13 -13 -21 -16 -18 -9 10 -99 -24 -132 -49 -19 -14 -36 -22
-40 -19 -3 4 -7 -2 -7 -13 -2 -31 -4 -37 -23 -79 -13 -31 -16 -53 -11 -98 4
-41 3 -57 -4 -52 -7 4 -11 61 -11 154 l0 148 111 23 c71 15 114 29 120 39 14
23 109 240 122 279 l11 33 -114 114 -113 113 69 87 c38 48 78 100 89 116 11
16 24 29 28 29 4 0 64 -27 133 -60 l126 -60 76 58 c42 32 97 73 122 90 88 61
84 43 41 178 -63 197 -70 172 56 232 96 45 207 92 218 92 2 0 27 -42 56 -92
28 -51 60 -107 70 -124 l19 -31 88 17 c48 10 130 26 183 35 l97 17 22 114 23
114 32 0 c32 0 182 -17 221 -25 18 -4 24 -16 33 -72 6 -38 16 -91 22 -118 l10
-51 125 -29 125 -28 39 38 40 39 53 -11 c28 -6 78 -21 109 -33 51 -19 58 -25
64 -56 4 -20 12 -34 20 -34 43 0 18 85 -30 105 -17 7 -75 25 -128 40 -104 28
-107 27 -170 -17 -13 -9 -37 -8 -111 6 l-94 18 -12 71 c-7 40 -17 95 -23 124
-12 59 2 54 -208 73 -63 6 -130 13 -148 16 l-33 5 23 18 c47 37 161 62 383 86
194 21 694 13 880 -14z m2835 -898 c0 -3 -13 -40 -30 -82 -85 -219 -161 -434
-157 -444 3 -7 34 -46 69 -88 34 -42 83 -102 107 -133 24 -30 47 -53 51 -51 4
3 90 18 190 35 101 16 184 31 185 32 3 6 95 327 116 403 12 44 23 82 25 84 11
12 56 -49 93 -127 48 -103 71 -198 71 -302 0 -151 -47 -271 -151 -384 -73 -80
-146 -129 -252 -169 -79 -31 -88 -32 -232 -32 l-150 0 -74 -98 c-340 -450
-921 -953 -1515 -1309 -71 -43 -134 -78 -139 -78 -14 0 -10 3 48 35 136 74
381 240 377 255 -1 6 2 9 8 5 13 -8 52 13 45 25 -3 5 3 18 14 29 16 16 17 20
5 25 -8 3 -12 2 -9 -3 11 -18 -16 -23 -35 -6 -11 10 -37 17 -70 17 -39 1 -47
4 -31 9 34 13 24 19 -26 14 l-46 -5 41 30 c44 32 52 35 52 22 0 -5 -15 -15
-32 -24 l-33 -15 42 1 c25 0 39 5 35 11 -12 20 -9 46 5 41 8 -3 12 -2 9 3 -5
8 12 22 98 74 40 25 146 107 146 113 0 6 -62 -36 -70 -47 -13 -17 -262 -165
-390 -231 -152 -79 -225 -110 -299 -129 -25 -6 -40 -14 -35 -17 5 -4 18 -23
28 -42 22 -40 15 -34 -40 34 -97 122 -227 186 -384 189 -296 5 -510 -189 -510
-462 0 -138 52 -255 155 -349 l55 -50 -78 -9 c-143 -15 -527 -9 -632 10 -104
19 -313 77 -306 85 3 2 36 -2 73 -9 91 -19 521 -19 661 0 56 7 102 14 102 16
0 1 -16 29 -35 60 -19 32 -37 66 -40 75 -5 16 -11 16 -85 -1 -144 -31 -303
-42 -535 -36 -236 5 -339 22 -500 81 -63 23 -65 26 -28 21 320 -39 686 -19
1016 57 l87 20 0 37 c0 134 54 255 160 361 119 119 251 175 465 195 118 12
342 63 489 112 235 79 537 242 726 393 209 167 445 433 591 667 l70 112 -35
68 c-96 189 -108 372 -35 522 23 47 56 90 118 151 91 91 154 130 289 180 79
30 102 35 102 23z m-5347 -698 c-3 -9 -8 -14 -10 -11 -3 3 -2 9 2 15 9 16 15
13 8 -4z m-228 -319 c19 -8 35 -17 35 -20 0 -5 -71 22 -79 30 -9 8 11 4 44
-10z m2665 -441 c0 -35 -74 -112 -140 -146 -52 -26 -203 -79 -209 -73 -2 2 10
24 27 48 18 25 35 58 38 75 4 17 12 36 20 42 34 28 264 75 264 54z m2919 -161
c-150 -262 -362 -479 -742 -763 -350 -260 -704 -469 -958 -565 -41 -16 -49
-24 -75 -79 -32 -68 -183 -230 -242 -261 -19 -10 -32 -19 -30 -21 8 -8 251 70
383 122 457 182 833 421 1141 728 174 173 306 344 463 597 58 93 106 167 108
165 1 -2 -2 -17 -7 -33 -5 -16 -16 -58 -25 -93 -17 -67 -106 -234 -208 -386
-287 -430 -783 -837 -1357 -1113 -423 -204 -741 -299 -1220 -364 -127 -17
-544 -17 -680 0 -266 34 -563 115 -785 214 -294 132 -468 237 -662 402 -80 67
-106 101 -44 56 51 -36 229 -116 356 -160 152 -52 248 -76 415 -105 74 -13
144 -27 154 -31 12 -5 17 -4 13 3 -4 5 -33 20 -66 32 -156 57 -425 213 -589
342 l-97 77 -205 11 c-208 12 -430 34 -530 52 -79 14 -284 73 -271 77 6 2 48
-1 94 -7 169 -22 491 -41 826 -48 241 -5 329 -9 291 -15 -30 -5 -59 -10 -65
-11 -5 -2 24 -28 65 -58 355 -259 919 -466 1416 -519 154 -17 550 -8 664 14
352 70 539 203 620 441 16 46 21 51 71 70 85 34 409 199 574 293 251 144 465
284 644 421 175 135 429 383 549 538 31 40 58 70 60 69 1 -2 -20 -43 -49 -92z
m-3279 76 c0 -25 -42 -89 -80 -124 -71 -64 -82 -66 -352 -65 -134 0 -262 4
-286 7 l-43 7 33 16 c104 51 141 60 513 134 187 37 215 40 215 25z m1074 -1
c39 -11 156 -110 156 -132 0 -6 -10 -1 -22 10 -32 29 -91 52 -153 59 -46 6
-60 3 -106 -22 -59 -33 -116 -98 -160 -186 -44 -88 -59 -158 -59 -285 0 -104
-2 -113 -21 -123 -11 -7 -23 -9 -26 -7 -13 14 -23 92 -23 188 0 232 85 414
224 480 66 31 123 37 190 18z m144 -180 c30 -38 58 -100 72 -158 16 -67 17
-200 3 -226 -9 -15 -12 -1 -18 71 -4 49 -16 121 -26 161 -18 71 -60 166 -79
178 -5 3 -10 11 -10 16 0 13 35 -11 58 -42z m-100 -90 c-3 -43 -10 -65 -27
-83 -23 -25 -89 -46 -138 -46 -25 1 -21 5 29 30 65 34 95 68 111 127 15 58 30
42 25 -28z m-158 -154 c64 -33 111 -135 76 -164 -23 -19 -38 -9 -66 45 -14 27
-38 68 -53 92 -27 40 -27 42 -7 42 12 0 34 -7 50 -15z m93 -434 c90 -31 132
-57 189 -120 119 -128 139 -294 55 -454 -38 -73 -100 -130 -185 -170 -64 -30
-73 -32 -187 -32 -142 0 -201 19 -290 91 -105 86 -148 177 -148 314 0 112 26
180 98 258 119 129 296 172 468 113z m557 -21 c-8 -5 -19 -10 -25 -10 -5 0 -3
5 5 10 8 5 20 10 25 10 6 0 3 -5 -5 -10z m280 -36 c0 -8 -19 -13 -24 -6 -3 5
1 9 9 9 8 0 15 -2 15 -3z m-4085 -128 c98 -14 94 -18 -40 -36 -131 -17 -283
-30 -349 -29 -74 0 -62 7 94 49 117 32 163 34 295 16z m3645 -170 c0 -3 -4 -8
-10 -11 -5 -3 -10 -1 -10 4 0 6 5 11 10 11 6 0 10 -2 10 -4z"/>
<path d="M7755 6990 c-233 -9 -393 -25 -485 -47 -139 -34 -329 -131 -524 -268
-128 -90 -299 -225 -292 -232 2 -3 157 1 343 7 207 8 628 11 1085 9 l747 -4
35 34 c42 41 109 150 210 342 l76 147 -27 6 c-42 11 -940 15 -1168 6z m224
-64 c-2 -2 -36 -17 -74 -34 -142 -62 -354 -188 -521 -309 l-102 -73 -337 0
-338 0 65 53 c110 90 274 196 391 252 140 68 247 93 437 104 154 9 486 14 479
7z m34 -24 c-11 -9 -50 -39 -85 -67 -68 -54 -157 -134 -280 -252 l-76 -74 -77
3 -77 3 78 60 c125 96 239 174 384 262 127 77 182 104 133 65z"/>
<path d="M6695 6560 c-16 -16 -25 -30 -19 -29 8 0 60 59 52 59 -3 0 -17 -13
-33 -30z"/>
<path d="M9207 6970 c-102 -39 -141 -88 -307 -383 -63 -112 -97 -161 -137
-197 -60 -55 -163 -114 -271 -155 -39 -16 -71 -30 -69 -32 2 -1 62 15 134 36
138 42 291 74 538 115 185 31 694 107 913 137 l163 22 -6 26 c-25 107 -35 128
-82 168 -78 65 -166 121 -255 162 -227 105 -499 149 -621 101z m343 -65 c74
-38 163 -158 227 -304 l33 -76 -62 -3 c-51 -3 -64 0 -84 19 -13 12 -24 26 -24
30 0 39 -136 271 -194 333 l-28 29 51 -6 c27 -3 64 -13 81 -22z m-128 -249
c76 -27 110 -50 101 -72 -8 -20 -99 -61 -173 -78 -126 -28 -420 -46 -420 -26
0 48 97 156 170 190 40 19 57 20 148 16 73 -4 125 -13 174 -30z"/>
<path d="M9760 6581 c0 -6 4 -13 10 -16 6 -3 7 1 4 9 -7 18 -14 21 -14 7z"/>
<path d="M9708 6543 c7 -3 16 -2 19 1 4 3 -2 6 -13 5 -11 0 -14 -3 -6 -6z"/>
<path d="M6538 6343 c7 -3 16 -2 19 1 4 3 -2 6 -13 5 -11 0 -14 -3 -6 -6z"/>
<path d="M6418 6333 c12 -2 32 -2 45 0 12 2 2 4 -23 4 -25 0 -35 -2 -22 -4z"/>
<path d="M6328 6323 c12 -2 30 -2 40 0 9 3 -1 5 -23 4 -22 0 -30 -2 -17 -4z"/>
<path d="M6220 6313 c-186 -32 -362 -68 -435 -89 -188 -54 -354 -125 -423
-181 l-27 -22 45 -1 c25 0 76 -3 113 -7 l69 -6 -52 -30 c-28 -16 -48 -33 -43
-38 15 -14 167 -49 281 -64 62 -8 163 -14 225 -14 l112 2 -155 8 c-98 5 -170
14 -195 24 -38 15 -39 15 -7 10 20 -3 31 -1 27 5 -3 6 -18 10 -32 10 l-25 0 7
78 c6 74 24 122 45 122 6 0 10 9 10 19 0 11 6 22 13 24 6 3 3 6 -8 7 -13 1 -6
7 20 15 55 18 20 18 -40 0 -27 -8 -51 -13 -53 -10 -12 12 332 93 588 138 21 4
21 4 -5 4 -16 0 -41 -2 -55 -4z"/>
<path d="M6348 5863 c17 -2 47 -2 65 0 17 2 3 4 -33 4 -36 0 -50 -2 -32 -4z"/>
<path d="M5140 5730 c0 -25 42 -90 77 -119 104 -86 326 -161 576 -196 75 -10
54 2 -25 15 -130 21 -359 85 -366 102 -2 4 -12 8 -22 8 -9 0 -42 15 -71 33
-92 55 -121 78 -115 94 3 8 2 11 -4 8 -5 -3 -14 4 -20 15 -6 12 -7 20 -1 20 5
0 11 -4 13 -9 2 -4 14 -11 28 -15 23 -6 23 -6 5 5 -11 7 -32 21 -47 31 -16 11
-28 14 -28 8z"/>
<path d="M5309 5642 c11 -8 11 -10 0 -15 -8 -4 0 -4 16 -1 19 4 25 2 17 -3 -8
-7 -2 -9 20 -9 18 0 58 -3 88 -6 58 -7 39 -1 -65 20 -27 6 -59 14 -70 17 -15
5 -16 4 -6 -3z"/>
<path d="M5255 5630 c3 -5 8 -10 11 -10 2 0 4 5 4 10 0 6 -5 10 -11 10 -5 0
-7 -4 -4 -10z"/>
<path d="M5315 5589 c11 -7 22 -15 25 -19 7 -10 70 -18 64 -9 -3 5 -19 12 -37
18 -18 5 -41 12 -52 16 l-20 7 20 -13z"/>
<path d="M5520 5592 c0 -15 26 -21 83 -21 59 1 57 7 -3 13 -25 2 -53 7 -62 11
-10 4 -18 3 -18 -3z"/>
<path d="M5768 5553 c7 -3 16 -2 19 1 4 3 -2 6 -13 5 -11 0 -14 -3 -6 -6z"/>
<path d="M5420 5541 c0 -6 5 -13 10 -16 6 -3 10 1 10 9 0 9 -4 16 -10 16 -5 0
-10 -4 -10 -9z"/>
<path d="M5590 5530 c-9 -6 -10 -10 -3 -10 6 0 15 5 18 10 8 12 4 12 -15 0z"/>
<path d="M5500 5505 c14 -8 30 -14 35 -14 6 0 -1 6 -15 14 -14 8 -29 14 -35
14 -5 0 1 -6 15 -14z"/>
<path d="M6740 5500 c-16 -6 -6 -7 30 -3 30 3 57 7 59 9 8 7 -64 2 -89 -6z"/>
<path d="M6653 5483 c9 -2 25 -2 35 0 9 3 1 5 -18 5 -19 0 -27 -2 -17 -5z"/>
<path d="M6548 5473 c18 -2 45 -2 60 0 15 2 0 4 -33 4 -33 0 -45 -2 -27 -4z"/>
<path d="M6300 5460 l-65 -7 65 0 c36 0 99 3 140 7 l75 7 -75 0 c-41 0 -104
-3 -140 -7z"/>
<path d="M5855 5441 c-18 -7 321 -4 355 3 8 2 -64 4 -160 4 -96 0 -184 -3
-195 -7z"/>
<path d="M5883 5403 c15 -2 39 -2 55 0 15 2 2 4 -28 4 -30 0 -43 -2 -27 -4z"/>
<path d="M5728 5383 c12 -2 32 -2 45 0 12 2 2 4 -23 4 -25 0 -35 -2 -22 -4z"/>
<path d="M5452 5210 c-17 -39 -47 -93 -67 -119 l-35 -48 133 -11 c379 -33 804
-52 1190 -52 182 0 257 3 257 11 0 6 -49 60 -108 119 -99 99 -112 109 -152
114 -25 3 -178 8 -340 11 -270 5 -672 26 -796 41 l-50 6 -32 -72z"/>
<path d="M7738 5003 c7 -3 16 -2 19 1 4 3 -2 6 -13 5 -11 0 -14 -3 -6 -6z"/>
<path d="M7794 4918 l-19 -23 23 19 c12 11 22 21 22 23 0 8 -8 2 -26 -19z"/>
<path d="M7235 7704 c-180 -15 -399 -64 -555 -126 -168 -66 -398 -203 -555
-331 -80 -66 -272 -256 -335 -332 -122 -148 -245 -367 -283 -503 -14 -49 -14
-53 1 -47 36 14 222 64 312 85 l95 21 23 54 c93 211 399 568 628 731 267 190
576 306 934 349 85 10 94 13 50 14 -158 3 -544 -82 -731 -160 -78 -33 -314
-156 -379 -197 -287 -181 -609 -507 -692 -699 -32 -74 -43 -66 -14 10 50 134
125 258 242 403 232 287 549 497 920 609 209 64 335 78 684 79 168 1 339 -2
380 -6 52 -5 64 -4 40 2 -107 28 -609 56 -765 44z"/>
<path d="M5527 6863 c3 -7 6 -13 8 -13 2 0 5 6 8 13 3 8 -1 14 -8 14 -7 0 -11
-6 -8 -14z"/>
<path d="M5550 6849 c0 -5 5 -7 10 -4 6 3 10 8 10 11 0 2 -4 4 -10 4 -5 0 -10
-5 -10 -11z"/>
<path d="M5533 6815 c-7 -8 -9 -16 -4 -19 5 -3 12 1 15 10 8 22 4 25 -11 9z"/>
<path d="M5318 6753 c7 -3 16 -2 19 1 4 3 -2 6 -13 5 -11 0 -14 -3 -6 -6z"/>
<path d="M5268 6743 c6 -2 18 -2 25 0 6 3 1 5 -13 5 -14 0 -19 -2 -12 -5z"/>
<path d="M10560 7226 c-160 -133 -216 -286 -175 -480 21 -102 48 -166 108
-258 156 -242 407 -332 674 -243 179 60 311 205 348 382 18 86 19 137 1 73
-39 -138 -122 -249 -249 -331 -93 -61 -175 -84 -292 -83 -172 0 -300 56 -415
180 -69 75 -105 141 -130 240 -48 186 -9 332 132 495 38 44 67 79 65 79 -1 0
-32 -24 -67 -54z"/>
<path d="M9554 5414 c-18 -14 -18 -15 4 -4 12 6 22 13 22 15 0 8 -5 6 -26 -11z"/>
<path d="M9495 5380 c-16 -11 -25 -20 -20 -20 10 0 64 39 55 40 -3 0 -18 -9
-35 -20z"/>
<path d="M9504 5354 c-18 -14 -18 -15 4 -4 12 6 22 13 22 15 0 8 -5 6 -26 -11z"/>
<path d="M9398 5326 c-56 -33 -59 -41 -5 -15 26 13 47 27 47 31 0 10 3 11 -42
-16z"/>
<path d="M9335 5264 c-55 -29 -144 -72 -198 -95 -54 -23 -96 -43 -93 -46 9 -9
332 142 391 183 41 29 -3 10 -100 -42z"/>
<path d="M9275 5266 c-81 -39 -252 -109 -368 -152 -84 -31 -101 -40 -78 -42
16 -2 44 2 62 7 30 9 30 10 6 7 -42 -5 -20 10 48 33 136 45 420 169 390 170
-5 1 -32 -10 -60 -23z"/>
<path d="M9470 5140 c-9 -6 -10 -10 -3 -10 6 0 15 5 18 10 8 12 4 12 -15 0z"/>
<path d="M9008 5113 c7 -3 16 -2 19 1 4 3 -2 6 -13 5 -11 0 -14 -3 -6 -6z"/>
<path d="M8945 5100 c-13 -5 -14 -9 -5 -9 8 0 24 4 35 9 13 5 14 9 5 9 -8 0
-24 -4 -35 -9z"/>
<path d="M9609 5043 c-13 -16 -12 -17 4 -4 9 7 17 15 17 17 0 8 -8 3 -21 -13z"/>
<path d="M9561 5010 c-13 -11 -19 -20 -14 -20 6 0 18 9 28 20 23 25 17 25 -14
0z"/>
<path d="M8390 4846 l-94 -33 -33 -109 c-18 -60 -33 -116 -33 -125 0 -9 38
-56 84 -104 l83 -88 44 7 c23 4 83 19 132 34 66 19 91 32 97 47 5 11 22 63 39
115 l31 94 -97 98 c-114 114 -109 113 -253 64z"/>
</g>
</svg>
